<!--?xml version="1.0" encoding="utf-8"?-->
<!-- Generator: Adobe Illustrator 24.1.0, SVG Export Plug-In . SVG Version: 6.00 Build 0)  -->
<svg version="1.1" id="btree" xmlns="http://www.w3.org/2000/svg" xmlns:xlink="http://www.w3.org/1999/xlink" x="0px" y="0px" viewBox="0 0 216 204.48" enable-background="new 0 0 216 204.48" xml:space="preserve" style="" class="">
<g>
	<path fill="none" stroke="#55AE9C" stroke-linecap="round" stroke-linejoin="round" stroke-miterlimit="10" d="M41.59,137.96
		c1.68-2.33,3.1-4.83,4.87-7.1c1.33-1.71,2.68-3.4,4.14-4.98c3.9-4.21,6.43-9.1,7.76-14.65c0.82-3.39,1.36-6.81,1.2-10.31
		c-0.05-1.04-0.21-2.08-0.22-3.12c-0.05-4.28,1.47-7.97,4.3-11.15c3.18-3.57,6.99-6.44,10.55-9.59c3.79-3.36,7.68-6.59,11.76-9.57
		c6.48-4.73,12.98-9.42,19.55-14.01c2.21-1.54,4.56-2.88,6.2-5.07c2.78-3.73,4.19-7.8,2.64-12.46c-0.94-2.83-3-4.58-5.63-5.75
		c-3.18-1.41-6.48-1.99-9.95-1.44c-0.81,0.13-1.61,0.3-2.28,0.84" class="ThDfzDwk_0"></path>
	<path fill="none" stroke="#55AE9C" stroke-linecap="round" stroke-linejoin="round" stroke-miterlimit="10" d="M35.12,138.08
		c0.43-0.05,0.48-0.35,0.62-0.71c1.52-4.1,3.75-7.77,6.95-10.78c1.73-1.63,3.61-3.09,5.26-4.81c3.99-4.12,6.13-9.11,6.79-14.75
		c0.09-0.8-0.35-1.67-0.56-2.51c-0.79-3.23-1.18-6.53-1.28-9.83c-0.11-3.54,1.38-6.65,3.21-9.58c2.19-3.5,5.05-6.39,8.11-9.15
		c3.61-3.25,7.46-6.18,11.43-8.93c4.02-2.78,8.3-5.18,12.56-7.59c6.33-3.58,11.77-8.23,16.18-14.02c2.95-3.87,1.1-9.53-1.91-11.02
		c-1.14-0.57-2.33-0.7-3.6-0.49c-2.91,0.48-5.45,1.84-8.02,3.14c-0.32,0.16-0.56,0.47-0.84,0.71" class="ThDfzDwk_1"></path>
	<path fill="none" stroke="#55AE9C" stroke-linecap="round" stroke-linejoin="round" stroke-miterlimit="10" d="M123.58,33.92
		c0.99,1.37,0.84,2.89,0.6,4.44c-0.59,3.84-2.45,7.11-4.68,10.18c-2.18,2.99-5.01,5.27-8.15,7.19c-1.8,1.1-3.09,2.75-4.67,4.09
		c-4.43,3.77-8.72,7.69-13.31,11.27c-2.22,1.73-4.91,2.51-7.44,3.57c-8.35,3.46-13.81,9.65-17.12,17.89
		c-1.79,4.45-2.73,9.09-2.91,13.9c-0.22,5.74,0.17,11.44,0.73,17.14c0.37,3.67-0.04,7.3-0.71,10.91c-0.21,1.16-0.4,2.32-0.6,3.48" class="ThDfzDwk_2"></path>
	<path fill="none" stroke="#55AE9C" stroke-linecap="round" stroke-linejoin="round" stroke-miterlimit="10" d="M135.21,49.14
		c-5.59,2.63-10.66,6.09-15.46,9.95c-2.03,1.64-3.87,3.48-5.64,5.39c-3.84,4.15-8.44,7.3-13.17,10.33
		c-3.47,2.23-6.86,4.6-10.56,6.45c-1.62,0.81-3.3,1.47-4.94,2.23c-3.23,1.5-5.63,3.74-7.31,6.86c-1.93,3.59-3.98,7.11-5.76,10.79
		c-1.16,2.41-1.62,4.94-1.65,7.56c-0.06,5.73,0.32,11.43,0.78,17.14c0.33,4.03,1.13,8.03,1,12.1" class="ThDfzDwk_3"></path>
	<path fill="none" stroke="#55AE9C" stroke-linecap="round" stroke-linejoin="round" stroke-miterlimit="10" d="M163.86,137.96
		c-0.85-1.51-1.71-2.99-2.85-4.34c-1.94-2.3-4.35-3.94-6.99-5.22c-3.04-1.48-6.2-2.66-9-4.67c-5.05-3.63-7.57-8.48-7.65-14.65
		c-0.03-1.94,0.24-3.94-0.72-5.75c-3.26-6.1-9.5-8.67-16.3-5.77c-5.92,2.52-9.46,7.14-11.75,12.95c-2.02,5.12-3.15,10.45-4.2,15.82
		c-0.74,3.75-1.28,7.54-2.61,11.16c-0.07,0.18-0.11,0.35-0.26,0.47" class="ThDfzDwk_4"></path>
	<path fill="none" stroke="#55AE9C" stroke-linecap="round" stroke-linejoin="round" stroke-miterlimit="10" d="M139.41,54.06
		c-3.75,1.34-7.17,3.28-10.18,5.88c-4.33,3.73-8.47,7.65-12.36,11.85c-2.19,2.36-4.96,3.93-7.78,5.41
		c-4.82,2.52-9.31,5.58-14.03,8.27c-1.76,1-3.46,2.12-5.29,2.97c-3.79,1.76-6.06,4.87-7.89,8.42c-2.69,5.22-3.99,10.8-4.35,16.66
		c-0.25,4.09,0.25,8.09,0.86,12.11c0.63,4.09,1.08,8.2,1.08,12.34" class="ThDfzDwk_5"></path>
	<path fill="none" stroke="#55AE9C" stroke-linecap="round" stroke-linejoin="round" stroke-miterlimit="10" d="M143.36,59.21
		c-2.71,1.44-5.14,3.27-7.55,5.15c-2.75,2.15-5.43,4.39-7.77,6.97c-4.74,5.22-10.43,9.02-16.78,12c-5.11,2.4-10.07,5.15-14.39,8.85
		c-4.22,3.6-7.47,7.79-8.83,13.4c-1,4.13-1.92,8.24-2.08,12.48c-0.14,3.59,0.34,7.14,1.47,10.53c0.73,2.17,0.63,4.31,0.54,6.49
		c-0.04,0.96-0.23,1.92-0.35,2.88" class="ThDfzDwk_6"></path>
	<path fill="none" stroke="#55AE9C" stroke-linecap="round" stroke-linejoin="round" stroke-miterlimit="10" d="M153.55,138.08
		c-0.69-0.03-0.76-0.7-0.93-1.09c-2.07-4.89-5.85-7.52-10.93-8.64c-3.2-0.71-6.29-1.71-8.9-3.9c-2.18-1.83-3.2-4.1-3.33-6.86
		c-0.11-2.29,0.53-4.53,0.37-6.83c-0.22-3.17-1.24-5.97-3.61-8.14c-1.93-1.77-3.63-1.54-5.49-0.11c-2.55,1.96-3.66,4.72-3.85,7.89
		c-0.18,3-0.08,5.99-0.03,8.99c0.04,2.8-0.74,5.47-1.88,8.03c-1.66,3.75-4.04,7.02-6.59,10.19c-0.29,0.36-0.72,0.4-1.08,0.6" class="ThDfzDwk_7"></path>
	<path fill="none" stroke="#55AE9C" stroke-linecap="round" stroke-linejoin="round" stroke-miterlimit="10" d="M146.84,63.17
		c-3.66,1.31-6.76,3.52-9.72,5.98c-1.95,1.62-3.41,3.7-5.25,5.43c-3.74,3.52-7.97,6.36-12.12,9.33c-5.82,4.16-11.87,7.97-17.64,12.2
		c-4.66,3.42-7.11,8.1-8.38,13.56c-0.73,3.12-0.91,6.28-0.84,9.47c0.05,2.76,0.01,5.51,0.01,8.27c0,2.89-0.31,5.75-0.48,8.63" class="ThDfzDwk_8"></path>
	<path fill="none" stroke="#55AE9C" stroke-linecap="round" stroke-linejoin="round" stroke-miterlimit="10" d="M151.63,68.44
		c-1-0.51-1.88,0.03-2.75,0.37c-5.37,2.07-9.71,5.43-12.82,10.3c-0.77,1.21-1.41,2.49-2.17,3.71c-2.92,4.65-7.33,6.9-12.58,7.79
		c-3.58,0.61-6.9,1.85-9.95,3.83c-3.84,2.49-6.32,6.06-8.01,10.2c-2.5,6.11-4.3,12.42-5.43,18.93c-0.65,3.74-0.99,7.51-1.42,11.27" class="ThDfzDwk_9"></path>
	<path fill="none" stroke="#55AE9C" stroke-linecap="round" stroke-linejoin="round" stroke-miterlimit="10" d="M158.58,77.07
		c0.24,0.75-0.24,1.26-0.6,1.8c-2.87,4.23-6.8,7.21-11.25,9.61c-2.09,1.13-4.2,2.25-6.14,3.67c-2.93,2.15-1.9,3.69-0.45,5.52
		c1.54,1.95,3.42,3.61,5.12,5.42c1.66,1.77,2.9,3.77,3.04,6.34c0.08,1.44-0.32,2.71-0.88,3.95c-0.91,2.04-0.45,3.67,1.32,5.05
		c1.33,1.05,2.88,1.69,4.34,2.47c6.87,3.68,11.83,9.02,14.62,16.33c0.1,0.26,0.31,0.48,0.47,0.72" class="ThDfzDwk_10"></path>
	<path fill="none" stroke="#55AE9C" stroke-linecap="round" stroke-linejoin="round" stroke-miterlimit="10" d="M161.82,81.98
		c-4.66,2.89-8.3,6.77-11.01,11.51c-2.03,3.56-2.35,7.09-0.06,10.81c2.24,3.63,4.84,6.96,7.48,10.27c3.68,4.62,7.42,9.2,11.14,13.79
		c1.84,2.28,2.55,5,3.13,7.79c0.12,0.6,0.07,1.26,0.47,1.8" class="ThDfzDwk_11"></path>
	<path fill="none" stroke="#55AE9C" stroke-linecap="round" stroke-linejoin="round" stroke-miterlimit="10" d="M50.7,86.42
		c-1.02,1.35-1.13,3-1.41,4.56c-0.58,3.16-0.74,6.38-0.86,9.58c-0.1,2.69,0.44,5.31,1.08,7.91c0.94,3.84-0.21,7.14-3.37,9.47
		c-2.63,1.94-5.38,3.75-7.66,6.12c-2.63,2.72-4.51,5.9-5.76,9.46c-0.45,1.29-0.95,2.56-1.44,3.83c-0.13,0.33-0.24,0.71-0.71,0.72" class="ThDfzDwk_12"></path>
	<path fill="none" stroke="#55AE9C" stroke-linecap="round" stroke-linejoin="round" stroke-miterlimit="10" d="M65.09,68.44
		c0.61-0.33,1.25-0.57,1.92-0.72c1.94-0.45,3.55-1.53,5.02-2.77c5.18-4.36,10.93-7.79,16.91-10.9c3.97-2.06,6.59-5.32,8.15-9.47
		c0.14-0.38,0.2-0.79,0.24-1.2c0.1-0.99-0.31-1.42-1.31-1.44c-0.92-0.02-1.75,0.35-2.51,0.74c-3.73,1.93-7.44,3.9-11.27,5.62
		c-0.55,0.25-1.04,0.63-1.56,0.95" class="ThDfzDwk_13"></path>
	<path fill="none" stroke="#55AE9C" stroke-linecap="round" stroke-linejoin="round" stroke-miterlimit="10" d="M165.78,85.94
		c0.09,0.99-0.74,1.48-1.21,2.15c-1.87,2.6-4.05,4.98-5.62,7.8c-1.31,2.35-1.42,4.59,0.35,6.84c4.03,5.12,7.03,10.89,10.42,16.42
		c1.63,2.65,3.33,5.27,4.58,8.14c1.28,2.92,1.95,6,2.54,9.11c0.11,0.57-0.2,1.4,0.69,1.68" class="ThDfzDwk_14"></path>
	<path fill="none" stroke="#55AE9C" stroke-linecap="round" stroke-linejoin="round" stroke-miterlimit="10" d="M132.93,190.22
		c-16.38,0-32.76,0-49.15,0" class="ThDfzDwk_15"></path>
	<path fill="none" stroke="#55AE9C" stroke-linecap="round" stroke-linejoin="round" stroke-miterlimit="10" d="M44.47,94.09
		c-0.32,1.09,0.24,2.08,0.37,3.12c0.66,5.27,0.47,10.46-1.07,15.59c-1.04,3.45-3.36,5.5-6.74,6.19c-5.64,1.16-8.83,4.5-9.83,10.1
		c-0.49,2.72-0.87,5.47-2.02,8.04c-0.19,0.42-0.28,0.89-0.85,0.96" class="ThDfzDwk_16"></path>
	<path fill="none" stroke="#55AE9C" stroke-linecap="round" stroke-linejoin="round" stroke-miterlimit="10" d="M170.09,92.05
		c-1.16,1.94-2.25,3.9-2.92,6.1c-0.48,1.58-0.18,3.12,0.81,4.03c2.72,2.48,3.95,5.76,5.48,8.92c2.38,4.92,4.74,9.87,7.67,14.5
		c1.21,1.91,2.38,3.8,2.49,6.12c0.09,2.04-0.05,4.08-0.23,6.11" class="ThDfzDwk_17"></path>
	<path fill="none" stroke="#55AE9C" stroke-linecap="round" stroke-linejoin="round" stroke-miterlimit="10" d="M38.24,101.76
		c-0.34,0.47-0.05,0.92,0.13,1.31c1.44,3.08,0.61,5.47-1.45,7.44c-3.49,3.33-7.33,6.2-11.5,8.65c-3.7,2.18-5.48,5.52-5.66,9.81
		c-0.14,3.31-1.22,6.26-3.81,8.52c-0.37,0.32-0.77,0.54-1.21,0.71" class="ThDfzDwk_18"></path>
	<path fill="none" stroke="#55AE9C" stroke-linecap="round" stroke-linejoin="round" stroke-miterlimit="10" d="M176.08,98.88
		c1.26,1.88,1.99,4.03,3.1,6c2.33,4.17,5.18,8.01,7.46,12.21c2.38,4.39,3.85,9.01,4.09,14.03c0.11,2.26-0.11,4.48-0.38,6.71" class="ThDfzDwk_19"></path>
	<path fill="none" stroke="#55AE9C" stroke-linecap="round" stroke-linejoin="round" stroke-miterlimit="10" d="M143,138.08
		c-0.16-0.08-0.45-0.14-0.46-0.24c-0.47-3.34-2.66-5.33-5.42-6.82c-3.29-1.78-6.87-2.84-10.44-3.79c-2.87-0.77-5.36,0.44-7.15,2.73
		c-1.38,1.77-2.51,3.73-3.74,5.61" class="ThDfzDwk_20"></path>
	<path fill="none" stroke="#55AE9C" stroke-linecap="round" stroke-linejoin="round" stroke-miterlimit="10" d="M60.53,137.96
		c0.82-2.21,1.41-4.48,1.54-6.83c0.15-2.8-0.71-3.76-2.97-3.81c-1.02-0.02-2.04,0.22-3,0.69c-2.21,1.07-3.34,2.99-4.2,5.16
		c-0.62,1.56-0.89,3.22-1.43,4.8" class="ThDfzDwk_21"></path>
	<path fill="none" stroke="#55AE9C" stroke-linecap="round" stroke-linejoin="round" stroke-miterlimit="10" d="M20.98,14.5
		c-4.12,0-8.23,0-12.47,0c0,4.23,0,8.35,0,12.47" class="ThDfzDwk_22"></path>
	<path fill="none" stroke="#55AE9C" stroke-linecap="round" stroke-linejoin="round" stroke-miterlimit="10" d="M208.21,177.75
		c0,4.12,0,8.23,0,12.47c-4.23,0-8.35,0-12.47,0" class="ThDfzDwk_23"></path>
	<path fill="none" stroke="#55AE9C" stroke-linecap="round" stroke-linejoin="round" stroke-miterlimit="10" d="M208.21,26.97
		c0-4.12,0-8.23,0-12.47c-4.23,0-8.35,0-12.47,0" class="ThDfzDwk_24"></path>
	<path fill="none" stroke="#55AE9C" stroke-linecap="round" stroke-linejoin="round" stroke-miterlimit="10" d="M8.51,177.75
		c0,4.12,0,8.23,0,12.47c3.91,0,7.71,0,11.51,0" class="ThDfzDwk_25"></path>
	<path fill="none" stroke="#55AE9C" stroke-linecap="round" stroke-linejoin="round" stroke-miterlimit="10" d="M194.06,120.94
		c1.3,2.13,2.1,4.4,2.06,6.95c-0.03,1.61-0.27,3.2-0.4,4.79c-0.15,1.77-0.46,3.52-0.7,5.28" class="ThDfzDwk_26"></path>
	<path fill="none" stroke="#55AE9C" stroke-linecap="round" stroke-linejoin="round" stroke-miterlimit="10" d="M118.31,27.45
		c-2.2-2.29-5.16-3.03-8.03-3.94c-2.21-0.7-4.53-0.81-6.83-0.98c-0.53-0.04-0.99,0.14-1.44,0.37" class="ThDfzDwk_27"></path>
	<path fill="none" stroke="#55AE9C" stroke-linecap="round" stroke-linejoin="round" stroke-miterlimit="10" d="M134.13,138.2
		c-1.25-0.42-1.92-1.5-2.76-2.39c-0.92-0.96-1.58-2.15-2.74-2.89c-1.15-0.74-2.2-0.81-3.38,0c-1.75,1.21-2.73,2.79-2.75,4.93" class="ThDfzDwk_28"></path>
	<path fill="none" stroke="#55AE9C" stroke-linecap="round" stroke-linejoin="round" stroke-miterlimit="10" d="M199.82,128.13
		c0.79,1.99,0.43,4.07,0.46,6.11c0.02,1.24-0.14,2.48-0.22,3.72" class="ThDfzDwk_29"></path>
	<path fill="none" stroke="#55AE9C" stroke-linecap="round" stroke-linejoin="round" stroke-miterlimit="10" d="M111.84,19.3
		c-0.56-0.29-1.16-0.39-1.8-0.36c-1.64,0.07-3.28-0.1-4.91,0.13" class="ThDfzDwk_30"></path>
	<path fill="none" stroke="#55AE9C" stroke-linecap="round" stroke-linejoin="round" stroke-miterlimit="10" d="M205.09,134.6
		c0.4,1.01,0.18,2.08,0.24,3.12c0.02,0.39-0.34,0.22-0.48,0.36" class="ThDfzDwk_31"></path>
	<path fill="none" stroke="#55AE9C" stroke-linecap="round" stroke-linejoin="round" stroke-miterlimit="10" d="M150.91,73.59
		c-5.2,1.57-8.72,4.96-10.82,9.94c-0.3,0.72-0.23,1.39-0.17,2.05c0.08,0.92,0.8,1.27,1.88,1.08c2.27-0.39,4.15-1.65,5.98-2.9
		c2.7-1.84,4.26-4.55,5.17-7.64c0.4-1.37-0.01-2.8-1.92-2.52" class="ThDfzDwk_32"></path>
</g>
</svg>
