<?xml version="1.0" standalone="no"?><!DOCTYPE svg PUBLIC "-//W3C//DTD SVG 1.1//EN" "http://www.w3.org/Graphics/SVG/1.1/DTD/svg11.dtd" ><svg xmlns="http://www.w3.org/2000/svg"><metadata></metadata><defs><font id="PingFang SC Light; 10.11d9e1; 2015-05-20" horiz-adv-x="1000"><font-face font-family="PingFang SC Light" font-weight="400" font-stretch="normal" units-per-em="1000" panose-1="2 11 2 0 0 0 0 0 0 0" ascent="1060" descent="-340" x-height="0" bbox="38 -103 962 827" underline-thickness="33" underline-position="-100" unicode-range="U+2edb-ff1b" /><missing-glyph horiz-adv-x="1000"  /><glyph glyph-name="" unicode="&#x3002;" d="M250 130 q49 0 83 -33 q35 -33 35 -82 q0 -48 -35 -81 q-34 -33 -83 -33 q-49 0 -83 32 q-35 34 -35 82 q0 51 35 82 q33 33 83 33 ZM250 99 q-37 0 -61 -24 q-25 -24 -25 -60 q0 -34 25 -58 q24 -24 61 -24 q34 0 61 24 q25 25 25 58 q0 34 -25 59 q-26 25 -61 25 Z" /><glyph glyph-name="" unicode="&#xff1b;" d="M250 587 q17 0 29 -12 q11 -11 11 -28 q0 -15 -11 -28 q-12 -12 -29 -12 q-17 0 -29 12 q-11 11 -11 28 q0 18 11 28 q12 12 29 12 ZM250 221 q48 0 48 -66 q0 -108 -85 -155 l-17 26 q65 45 68 116 l-13 -1 q-20 0 -30 10 q-11 10 -11 29 q0 21 10 31 q10 10 30 10 Z" /><glyph glyph-name="" unicode="&#x4e2d;" d="M482 816 l36 0 l0 -191 l364 0 l0 -449 l-35 0 l0 72 l-329 0 l0 -350 l-36 0 l0 350 l-328 0 l0 -72 l-35 0 l0 449 l363 0 l0 191 ZM154 282 l328 0 l0 309 l-328 0 l0 -309 ZM518 282 l329 0 l0 309 l-329 0 l0 -309 Z" /><glyph glyph-name="" unicode="&#x4e86;" d="M499 477 q168 102 308 230 l-684 0 l0 33 l731 0 l0 -33 q-135 -127 -322 -248 l0 -478 q0 -68 -75 -68 q-69 0 -157 2 l-10 34 q72 -3 157 -3 q52 0 52 42 l0 489 Z" /><glyph glyph-name="" unicode="&#x4ea4;" d="M63 680 l438 0 q-31 75 -66 131 l37 7 q36 -66 64 -138 l402 0 l0 -33 l-875 0 l0 33 ZM647 588 q167 -135 278 -272 l-25 -24 q-109 133 -277 274 l24 22 ZM718 391 q-74 -145 -189 -251 q169 -132 416 -198 l-20 -31 q-258 73 -422 206 q-170 -145 -422 -211 l-20 30 q254 66 416 202 q-122 105 -195 241 l30 17 q73 -136 191 -235 q113 104 183 244 l32 -14 ZM373 565 q-117 -150 -281 -259 l-22 28 q162 106 278 254 l25 -23 Z" /><glyph glyph-name="" unicode="&#x4eae;" d="M61 721 l429 0 q-23 50 -53 93 l36 7 q28 -46 51 -100 l415 0 l0 -31 l-878 0 l0 31 ZM246 598 l508 0 l0 -171 l-508 0 l0 171 ZM721 458 l0 110 l-442 0 l0 -110 l442 0 ZM896 338 l0 -152 l-34 0 l0 120 l-725 0 l0 -120 l-34 0 l0 152 l793 0 ZM325 209 l346 0 l0 -212 q0 -52 51 -52 l96 0 q33 0 51 12 q25 17 34 133 l33 -10 q-9 -101 -30 -134 q-21 -32 -83 -32 l-110 0 q-75 0 -75 75 l0 188 l-279 0 l0 -35 q-8 -193 -275 -238 l-20 29 q261 42 261 214 l0 62 Z" /><glyph glyph-name="" unicode="&#x2f08;&#x4eba;" d="M520 810 q0 -113 -7 -220 q84 -424 443 -645 l-22 -29 q-342 221 -432 594 q-75 -362 -439 -594 l-21 30 q426 267 441 701 l2 163 l35 0 Z" /><glyph glyph-name="" unicode="&#x4f60;" d="M185 513 q-61 -98 -135 -179 l-11 35 q172 200 245 446 l31 -15 q-39 -120 -95 -226 l0 -670 l-35 0 l0 609 ZM781 415 q87 -190 148 -391 l-31 -13 q-67 219 -149 393 l32 11 ZM453 643 q-49 -119 -121 -226 l-29 18 q117 167 174 385 l34 -7 q-20 -70 -45 -136 l438 0 l0 -23 q-23 -92 -67 -188 l-33 10 q42 81 65 167 l-416 0 ZM459 -88 l-7 33 q68 -3 130 -3 q40 0 40 40 l0 558 l33 0 l0 -567 q0 -61 -61 -61 l-135 0 ZM491 401 q-57 -212 -148 -373 l-33 12 q86 143 150 370 l31 -9 Z" /><glyph glyph-name="" unicode="&#x5149;" d="M483 814 l34 0 l0 -391 l415 0 l0 -34 l-304 0 l0 -374 q0 -50 52 -50 l135 0 q48 0 66 21 q24 30 33 172 l32 -11 q-9 -149 -40 -186 q-26 -29 -84 -29 l-153 0 q-75 0 -75 76 l0 381 l-200 0 l0 -13 q-1 -187 -78 -300 q-75 -105 -247 -165 l-19 30 q168 58 242 161 q65 104 67 274 l0 13 l-290 0 l0 34 l414 0 l0 391 ZM848 747 q-55 -128 -140 -244 l-31 15 q86 121 138 244 l33 -15 ZM186 754 q79 -107 147 -236 l-31 -15 q-71 133 -148 235 l32 16 Z" /><glyph glyph-name="" unicode="&#x53d8;" d="M744 593 q126 -79 207 -154 l-23 -23 q-79 74 -206 155 l22 22 ZM488 827 q28 -60 46 -116 l391 0 l0 -34 l-290 0 l0 -287 l-34 0 l0 287 l-201 0 l0 -288 l-34 0 l0 288 l-291 0 l0 34 l425 0 q-26 66 -50 109 l38 7 ZM283 568 q-87 -93 -211 -161 l-20 27 q124 69 206 157 l25 -23 ZM143 320 l667 0 l0 -27 q-108 -138 -272 -228 q176 -87 417 -123 l-17 -31 q-258 42 -434 136 q-183 -93 -429 -135 l-16 32 q235 36 412 121 q-155 91 -246 224 l-82 0 l0 31 ZM263 289 q94 -125 242 -207 q158 85 259 207 l-501 0 Z" /><glyph glyph-name="" unicode="&#x54cd;" d="M550 495 l216 0 l0 -368 l-216 0 l0 368 ZM734 158 l0 306 l-153 0 l0 -306 l153 0 ZM662 809 q-13 -80 -35 -138 l287 0 l0 -679 q0 -81 -73 -81 l-126 0 l-10 34 l125 -1 q51 0 51 55 l0 638 l-442 0 l0 -730 l-34 0 l0 764 l187 0 q25 71 35 143 l35 -5 ZM313 714 l0 -711 l-34 0 l0 69 l-150 0 l0 -93 l-33 0 l0 735 l217 0 ZM129 104 l150 0 l0 576 l-150 0 l0 -576 Z" /><glyph glyph-name="" unicode="&#x56db;" d="M893 736 l0 -816 l-35 0 l0 70 l-716 0 l0 -70 l-35 0 l0 816 l786 0 ZM142 21 l716 0 l0 203 l-186 0 q-78 0 -78 79 l0 401 l-184 0 l0 -229 q-3 -207 -181 -304 l-28 24 q173 89 176 280 l0 229 l-235 0 l0 -683 ZM627 704 l0 -396 q0 -51 51 -51 l180 0 l0 447 l-231 0 Z" /><glyph glyph-name="" unicode="&#x5728;" d="M363 333 l247 0 l0 202 l35 0 l0 -202 l249 0 l0 -34 l-249 0 l0 -325 l297 0 l0 -34 l-625 0 l0 34 l293 0 l0 325 l-247 0 l0 34 ZM218 353 q-70 -79 -156 -150 l-21 27 q209 173 320 398 l-286 0 l0 34 l302 0 q30 67 56 153 l35 -3 q-24 -78 -54 -150 l525 0 l0 -34 l-541 0 q-61 -129 -146 -234 l0 -492 l-34 0 l0 451 Z" /><glyph glyph-name="" unicode="&#x5929;" d="M84 445 l375 0 q23 122 29 268 l-378 0 l0 34 l780 0 l0 -34 l-367 0 q-7 -152 -30 -268 l426 0 l0 -33 l-388 0 q102 -314 415 -479 l-20 -27 q-327 174 -429 506 l-11 0 q-27 -125 -74 -207 q-101 -176 -340 -299 l-21 28 q228 116 328 281 q46 81 73 197 l-368 0 l0 33 Z" /><glyph glyph-name="" unicode="&#x6211;" d="M511 301 q-97 -33 -202 -60 l0 -240 q0 -83 -75 -83 l-109 0 l-7 33 q54 -3 105 -3 q52 0 52 62 l0 223 q-119 -27 -219 -43 l-5 33 q112 19 224 44 l0 225 l-221 0 l0 33 l221 0 l0 181 q-98 -20 -185 -31 l-7 33 q219 25 386 89 l12 -33 q-84 -30 -172 -50 l0 -189 l282 0 q-9 129 -9 285 l34 0 q0 -160 9 -285 l321 0 l0 -33 l-318 0 q11 -125 31 -207 q10 -45 28 -99 q90 100 151 229 l30 -16 q-69 -145 -168 -249 q26 -68 57 -115 q56 -79 92 -79 q44 1 74 190 l30 -16 q-34 -210 -98 -210 q-55 0 -122 91 q-34 51 -59 113 q-115 -111 -266 -171 l-19 30 q158 61 272 176 q-22 59 -36 122 q-20 88 -31 211 l-285 0 l0 -217 q102 25 202 61 l0 -35 ZM726 796 q109 -77 185 -157 l-24 -24 q-69 74 -185 159 l24 22 Z" /><glyph glyph-name="" unicode="&#x6625;" d="M111 738 l353 0 l18 81 l36 -4 l-18 -77 l389 0 l0 -31 l-397 0 q-17 -62 -37 -112 l388 0 l0 -31 l-401 0 q-28 -61 -58 -112 l537 0 l0 -32 l-217 0 q78 -140 258 -218 l-15 -30 q-199 94 -275 248 l-308 0 q-46 -66 -94 -113 l474 0 l0 -404 l-33 0 l0 48 l-416 0 l0 -50 l-33 0 l0 399 q-95 -86 -206 -131 l-18 29 q175 70 286 222 l-245 0 l0 32 l267 0 q34 56 60 112 l-246 0 l0 31 l258 0 q24 63 38 112 l-345 0 l0 31 ZM295 -17 l416 0 l0 132 l-416 0 l0 -132 ZM295 146 l416 0 l0 130 l-416 0 l0 -130 Z" /><glyph glyph-name="" unicode="&#x662f;" d="M212 771 l589 0 l0 -325 l-589 0 l0 325 ZM767 477 l0 114 l-521 0 l0 -114 l521 0 ZM246 622 l521 0 l0 118 l-521 0 l0 -118 ZM495 316 l-432 0 l0 32 l877 0 l0 -32 l-412 0 l0 -148 l304 0 l0 -33 l-304 0 l0 -174 q78 -9 193 -9 q124 0 211 3 l-10 -35 q-82 0 -198 2 q-246 0 -330 39 q-83 38 -149 156 q-58 -126 -154 -205 l-23 26 q143 119 194 324 l33 -6 q-15 -57 -36 -108 q67 -126 155 -162 q26 -10 81 -20 l0 350 Z" /><glyph glyph-name="" unicode="&#x2f49;&#x6708;" d="M293 483 l0 -208 l-1 -8 l468 0 l0 216 l-467 0 ZM760 516 l0 214 l-467 0 l0 -214 l467 0 ZM291 234 q-12 -199 -114 -327 l-27 24 q107 137 110 349 l0 483 l534 0 l0 -780 q0 -69 -65 -69 l-131 0 l-10 33 l130 -1 q42 0 42 50 l0 238 l-469 0 Z" /><glyph glyph-name="" unicode="&#x7075;" d="M186 603 l590 0 l0 130 l-616 0 l0 32 l650 0 l0 -353 l-676 0 l0 32 l642 0 l0 128 l-590 0 l0 31 ZM307 296 q-52 -112 -123 -195 l-27 20 q70 81 119 190 l31 -15 ZM836 308 q-50 -101 -121 -180 l-28 20 q67 70 118 175 l31 -15 ZM525 359 q0 -61 -10 -121 q78 -218 435 -293 l-14 -32 q-350 78 -434 279 q-73 -200 -403 -284 l-15 32 q326 78 389 271 q17 54 18 148 l34 0 Z" /><glyph glyph-name="" unicode="&#x70b9;" d="M466 816 l34 0 l0 -112 l400 0 l0 -33 l-400 0 l0 -162 l320 0 l0 -291 l-628 0 l0 291 l274 0 l0 307 ZM786 251 l0 225 l-560 0 l0 -225 l560 0 ZM219 143 q-57 -133 -137 -232 l-27 19 q80 98 134 227 l30 -14 ZM373 132 q33 -107 56 -224 l-35 -7 q-22 133 -53 224 l32 7 ZM584 138 q47 -102 82 -228 l-34 -7 q-34 131 -79 228 l31 7 ZM798 154 q95 -126 148 -227 l-28 -20 q-51 97 -148 229 l28 18 Z" /><glyph glyph-name="" unicode="&#x7684;" d="M388 627 l0 -661 l-34 0 l0 66 l-222 0 l0 -94 l-34 0 l0 689 l88 0 q33 87 48 185 l34 -5 q-17 -100 -49 -180 l169 0 ZM132 64 l222 0 l0 255 l-222 0 l0 -255 ZM132 351 l222 0 l0 242 l-222 0 l0 -242 ZM553 408 q124 -132 184 -223 l-27 -20 q-64 99 -184 225 l27 18 ZM907 625 q0 -464 -14 -579 q-14 -127 -136 -127 l-94 1 l-9 32 l101 -1 q91 0 105 100 q11 90 14 540 l-316 0 q-42 -99 -102 -181 l-20 27 q112 153 153 376 l33 -4 q-17 -95 -50 -184 l335 0 Z" /><glyph glyph-name="" unicode="&#x7740;" d="M103 716 l245 0 q-24 51 -56 100 l33 6 q29 -43 57 -106 l247 0 q42 54 59 109 l34 -5 q-20 -54 -59 -104 l235 0 l0 -32 l-397 0 q-13 -55 -28 -96 l376 0 l0 -31 l-388 0 q-21 -48 -48 -93 l532 0 l0 -32 l-553 0 q-38 -53 -76 -91 l511 0 l0 -437 l-34 0 l0 42 l-491 0 l0 -42 l-34 0 l0 392 q-89 -76 -203 -131 l-15 30 q197 90 305 237 l-300 0 l0 32 l322 0 q31 51 49 93 l-273 0 l0 31 l286 0 q15 40 29 96 l-365 0 l0 32 ZM302 190 l0 -91 l491 0 l0 91 l-491 0 ZM793 218 l0 92 l-491 0 l0 -92 l491 0 ZM793 -24 l0 94 l-491 0 l0 -94 l491 0 Z" /><glyph glyph-name="" unicode="&#x7b11;" d="M79 270 l386 0 q10 53 10 102 l0 67 q-151 -11 -315 -11 l-11 32 q414 1 673 62 l18 -29 q-141 -36 -330 -51 l0 -70 q-2 -59 -10 -102 l425 0 l0 -33 l-395 0 q81 -194 421 -299 l-18 -29 q-354 117 -436 328 l-4 0 q-27 -98 -90 -167 q-102 -105 -335 -165 l-19 30 q228 57 334 161 q52 61 74 141 l-378 0 l0 33 ZM189 686 q-40 -80 -93 -142 l-30 18 q95 112 141 254 l33 -7 q-13 -43 -35 -91 l294 0 l0 -32 l-195 0 q53 -77 82 -142 l-32 -12 q-35 80 -87 154 l-78 0 ZM611 688 q-36 -84 -81 -150 l-29 18 q78 113 117 261 l34 -8 q-15 -51 -28 -88 l315 0 l0 -33 l-204 0 q49 -66 75 -118 l-31 -12 q-37 71 -82 130 l-86 0 Z" /><glyph glyph-name="" unicode="&#x821e;" d="M226 704 q-45 -41 -111 -76 l-19 26 q133 69 181 168 l34 -5 q-21 -44 -54 -82 l633 0 l0 -31 l-115 0 l0 -139 l135 0 l0 -31 l-135 0 l0 -135 l165 0 l0 -31 l-880 0 l0 31 l182 0 l0 135 l-138 0 l0 31 l138 0 l0 139 l-16 0 ZM274 399 l134 0 l0 135 l-134 0 l0 -135 ZM441 399 l134 0 l0 135 l-134 0 l0 -135 ZM608 399 l135 0 l0 135 l-135 0 l0 -135 ZM743 565 l0 139 l-135 0 l0 -139 l135 0 ZM575 565 l0 139 l-134 0 l0 -139 l134 0 ZM408 565 l0 139 l-134 0 l0 -139 l134 0 ZM723 315 l34 0 l0 -59 l146 0 l0 -32 l-146 0 l0 -151 l167 0 l0 -31 l-167 0 l0 -145 l-34 0 l0 145 l-214 0 q27 79 43 147 l31 -4 q-17 -73 -32 -112 l172 0 l0 151 l-203 0 l0 32 l203 0 l0 59 ZM329 66 q71 65 105 150 l-198 0 q-54 -65 -134 -115 l-20 27 q140 87 190 210 l32 -7 q-20 -48 -44 -83 l209 0 l0 -28 q-81 -222 -374 -314 l-17 30 q135 40 226 110 q-57 63 -100 91 l26 19 q59 -39 99 -90 Z" /><glyph glyph-name="" unicode="&#x8273;" d="M81 447 l146 0 l0 184 l-161 0 l0 34 l161 0 l0 146 l34 0 l0 -146 l153 0 l0 -34 l-153 0 l0 -184 l143 0 l0 -32 l-143 0 l0 -193 l172 0 l0 -32 l-172 0 l0 -281 l-34 0 l0 281 l-174 0 l0 32 l174 0 l0 193 l-146 0 l0 32 ZM676 472 l-149 0 l0 -209 l149 0 l0 209 ZM707 263 l152 0 l0 209 l-152 0 l0 -209 ZM587 671 q-68 -112 -166 -204 l-22 26 q145 130 224 322 l32 -8 q-28 -65 -50 -104 l231 0 l0 -27 q-58 -107 -112 -171 l169 0 l0 -274 l-366 0 l0 -236 q0 -42 44 -43 l240 0 q56 1 80 37 q21 33 27 133 l32 -10 q-7 -93 -27 -135 q-30 -55 -106 -57 l-254 0 q-69 0 -69 69 l0 516 l188 0 q65 74 117 166 l-212 0 Z" /><glyph glyph-name="" unicode="&#x8bf4;" d="M408 592 l281 0 q66 100 116 229 l34 -12 q-53 -129 -116 -217 l154 0 l0 -289 l-141 0 l0 -305 q0 -45 44 -45 l75 0 q35 0 49 20 q19 29 25 156 l32 -10 q-7 -136 -32 -173 q-21 -26 -67 -26 l-92 0 q-67 0 -67 72 l0 311 l-124 0 q-12 -274 -237 -398 l-19 28 q215 116 224 370 l-139 0 l0 289 ZM844 335 l0 224 l-403 0 l0 -224 l403 0 ZM465 815 q59 -76 112 -173 l-29 -14 q-56 99 -114 172 l31 15 ZM148 795 q106 -80 173 -157 l-23 -23 q-69 78 -174 157 l24 23 ZM48 494 l192 0 l0 -475 q67 53 131 119 l9 -37 q-82 -84 -175 -148 l-14 30 q16 19 16 33 l0 444 l-159 0 l0 34 Z" /><glyph glyph-name="" unicode="&#x8f7b;" d="M266 540 l34 0 l0 -174 l118 0 l0 -32 l-118 0 l0 -185 q69 14 151 35 l0 -32 q-76 -21 -151 -35 l0 -208 l-34 0 l0 201 q-105 -19 -206 -32 l-5 33 q131 17 211 32 l0 191 l-185 0 l-8 32 q59 109 108 274 l-128 0 l0 33 l137 0 q22 84 35 139 l34 -5 l-34 -134 l200 0 l0 -33 l-210 0 q-49 -162 -105 -274 l156 0 l0 174 ZM666 252 l-200 0 l0 33 l436 0 l0 -33 l-203 0 l0 -279 l251 0 l0 -33 l-534 0 l0 33 l250 0 l0 279 ZM709 521 q-100 -99 -249 -165 l-21 28 q268 118 371 335 l-337 0 l0 34 l376 0 l0 -28 q-45 -102 -118 -181 q134 -87 219 -169 l-23 -24 q-88 85 -218 170 Z" /><glyph glyph-name="" unicode="&#x95f4;" d="M321 532 l350 0 l0 -438 l-350 0 l0 438 ZM638 126 l0 171 l-283 0 l0 -171 l283 0 ZM355 329 l283 0 l0 171 l-283 0 l0 -171 ZM713 -89 l-9 33 l88 -1 q55 0 55 70 l0 707 l-405 0 l0 33 l439 0 l0 -749 q0 -93 -82 -93 l-86 0 ZM117 646 l34 0 l0 -742 l-34 0 l0 742 ZM225 819 q68 -81 124 -185 l-31 -16 q-56 106 -125 187 l32 14 Z" /><glyph glyph-name="" unicode="&#x2faf;&#x9762;" d="M60 761 l880 0 l0 -34 l-413 0 q-14 -83 -47 -164 l395 0 l0 -661 l-33 0 l0 61 l-681 0 l0 -61 l-33 0 l0 661 l318 0 q32 77 46 164 l-432 0 l0 34 ZM161 -3 l175 0 l0 533 l-175 0 l0 -533 ZM369 -3 l262 0 l0 160 l-262 0 l0 -160 ZM664 -3 l178 0 l0 533 l-178 0 l0 -533 ZM369 188 l262 0 l0 154 l-262 0 l0 -154 ZM369 374 l262 0 l0 156 l-262 0 l0 -156 Z" /><glyph glyph-name="" unicode="&#x2edb;&#x98ce;" d="M317 578 q90 -109 184 -235 q73 130 113 277 l35 -6 q-47 -165 -127 -300 q105 -144 167 -254 l-30 -20 q-63 112 -156 242 q-97 -151 -237 -259 l-23 28 q145 112 239 261 q-83 115 -194 249 l29 17 ZM176 763 l617 0 l0 -387 q0 -274 23 -349 q23 -74 55 -74 q31 2 50 166 l30 -15 q-15 -110 -35 -155 q-18 -33 -42 -33 q-60 0 -87 92 q-29 88 -29 368 l0 353 l-549 0 l0 -341 q-3 -285 -122 -481 l-27 23 q110 181 116 458 l0 375 Z" /></font>
</defs>
</svg>
